<svg xmlns="http://www.w3.org/2000/svg" viewBox="0 0 48 48" width="48" height="48">
  <defs>
    <linearGradient id="skinBg" x1="0%" y1="0%" x2="100%" y2="100%">
      <stop offset="0%" stop-color="#fdf2f8"/>
      <stop offset="100%" stop-color="#fce7f3"/>
    </linearGradient>
  </defs>
  <rect width="48" height="48" rx="12" fill="url(#skinBg)"/>
  <rect x="1" y="1" width="46" height="46" rx="11" fill="none" stroke="#fbcfe8" stroke-width="1.5"/>
  <!-- Serum dropper bottle -->
  <rect x="14" y="20" width="16" height="18" rx="3" fill="#ffffff" stroke="#db2777" stroke-width="2"/>
  <rect x="18" y="15" width="8" height="5" fill="#f472b6"/>
  <!-- Dropper top -->
  <path d="M20 15v-4a2 2 0 0 1 4 0v4" fill="#be185d"/>
  <!-- Dropper pipet and nourishing droplet -->
  <path d="M34 26c0 3.5-2.5 6-5 6s-5-2.5-5-6c0-3 5-8 5-8s5 5 5 8z" fill="#f43f5e" opacity="0.9"/>
  <circle cx="28" cy="25" r="1" fill="#ffffff"/>
  <!-- Gentle sparkle -->
  <path d="M36 12l1 2 2 1-2 1-1 2-1-2-2-1 2-1z" fill="#ec4899"/>
</svg>

