<svg xmlns="http://www.w3.org/2000/svg" viewBox="0 0 560 610" role="img" aria-labelledby="title desc"><title id="title">BloomCare Pharmacy</title><desc id="desc">BloomCare Pharmacy logo with a green and blue care emblem</desc><defs><linearGradient id="g" x1="0" y1="0" x2="1" y2="1"><stop stop-color="#079447"/><stop offset="1" stop-color="#006f3b"/></linearGradient><linearGradient id="b" x1="0" y1="0" x2="1" y2="1"><stop stop-color="#07528f"/><stop offset="1" stop-color="#06356f"/></linearGradient></defs><g transform="translate(116 22)"><path d="M38 0h43c30 0 55 25 55 55v45c35-32 75-48 119-48 39 0 71 11 101 35l-48 51c-19-12-38-18-59-18-40 0-71 16-95 46-19 24-28 51-28 82 0 31 9 57 28 81-43-8-78-31-101-67-15-24-22-52-22-85V0Z" fill="url(#g)"/><path d="M280 147c50 0 91 18 123 54l-51 49c-20-18-43-27-69-27-29 0-53 10-72 30-19 20-29 44-29 73 0 28 10 52 29 72 19 20 43 30 72 30 26 0 49-9 69-27l51 49c-32 36-73 54-123 54-51 0-94-17-128-51-35-34-52-76-52-127 0-51 17-93 52-127 34-34 77-52 128-52Z" fill="url(#b)"/><circle cx="280" cy="326" r="70" fill="#fff"/><path d="M258 286h44c7 0 12 5 12 12v17h17c7 0 12 5 12 12v44c0 7-5 12-12 12h-17v17c0 7-5 12-12 12h-44c-7 0-12-5-12-12v-17h-17c-7 0-12-5-12-12v-44c0-7 5-12 12-12h17v-17c0-7 5-12 12-12Z" fill="#008342"/><path d="M95 422c-43-10-81-37-100-76 6 66 40 105 105 119 35 8 72 2 101-17-41 8-78-1-106-26Z" fill="url(#g)"/><path d="M386 102c14-17 31-17 42-7l-22 24Z" fill="#fff" stroke="#fff" stroke-width="7"/><path d="M382 105l20 22-33 34-20-22Z" fill="url(#b)"/></g><text x="28" y="500" fill="#087d44" font-family="Arial,sans-serif" font-size="78" font-weight="600" letter-spacing="-4">Bloom</text><text x="270" y="500" fill="#07508c" font-family="Arial,sans-serif" font-size="78" font-weight="600" letter-spacing="-4">Care</text><path d="M32 530h90M438 530h90" stroke="#087d44" stroke-width="3"/><text x="151" y="540" fill="#07508c" font-family="Arial,sans-serif" font-size="25" letter-spacing="9">PHARMACY</text></svg>
